<svg id="visual" viewBox="0 0 960 250" width="960" height="250" xmlns="http://www.w3.org/2000/svg"
    xmlns:xlink="http://www.w3.org/1999/xlink" version="1.1">
    <rect x="0" y="0" width="960" height="280" fill="#468FAF"></rect>
    <path
        d="M0 72L20 72C40 72 80 72 120 68.7C160 65.3 200 58.7 240 55.8C280 53 320 54 360 54.8C400 55.7 440 56.3 480 57.2C520 58 560 59 600 62.8C640 66.7 680 73.3 720 72.2C760 71 800 62 840 57.7C880 53.3 920 53.7 940 53.8L960 54L960 251L940 251C920 251 880 251 840 251C800 251 760 251 720 251C680 251 640 251 600 251C560 251 520 251 480 251C440 251 400 251 360 251C320 251 280 251 240 251C200 251 160 251 120 251C80 251 40 251 20 251L0 251Z"
        fill="#2c7da0"></path>
    <path
        d="M0 93L20 92.2C40 91.3 80 89.7 120 87.3C160 85 200 82 240 80.2C280 78.3 320 77.7 360 80.3C400 83 440 89 480 93.2C520 97.3 560 99.7 600 101.3C640 103 680 104 720 103.2C760 102.3 800 99.7 840 98.7C880 97.7 920 98.3 940 98.7L960 99L960 251L940 251C920 251 880 251 840 251C800 251 760 251 720 251C680 251 640 251 600 251C560 251 520 251 480 251C440 251 400 251 360 251C320 251 280 251 240 251C200 251 160 251 120 251C80 251 40 251 20 251L0 251Z"
        fill="#3885a7"></path>
    <path
        d="M0 116L20 116.8C40 117.7 80 119.3 120 122.2C160 125 200 129 240 128.2C280 127.3 320 121.7 360 118.7C400 115.7 440 115.3 480 113.8C520 112.3 560 109.7 600 108.3C640 107 680 107 720 111.2C760 115.3 800 123.7 840 124.3C880 125 920 118 940 114.5L960 111L960 251L940 251C920 251 880 251 840 251C800 251 760 251 720 251C680 251 640 251 600 251C560 251 520 251 480 251C440 251 400 251 360 251C320 251 280 251 240 251C200 251 160 251 120 251C80 251 40 251 20 251L0 251Z"
        fill="#438dae"></path>
    <path
        d="M0 139L20 141C40 143 80 147 120 151C160 155 200 159 240 158.2C280 157.3 320 151.7 360 150.7C400 149.7 440 153.3 480 156.3C520 159.3 560 161.7 600 160.3C640 159 680 154 720 153.3C760 152.7 800 156.3 840 154.8C880 153.3 920 146.7 940 143.3L960 140L960 251L940 251C920 251 880 251 840 251C800 251 760 251 720 251C680 251 640 251 600 251C560 251 520 251 480 251C440 251 400 251 360 251C320 251 280 251 240 251C200 251 160 251 120 251C80 251 40 251 20 251L0 251Z"
        fill="#4d95b4"></path>
    <path
        d="M0 182L20 183.7C40 185.3 80 188.7 120 187C160 185.3 200 178.7 240 178.2C280 177.7 320 183.3 360 187C400 190.7 440 192.3 480 193.2C520 194 560 194 600 192C640 190 680 186 720 183.5C760 181 800 180 840 179.2C880 178.3 920 177.7 940 177.3L960 177L960 251L940 251C920 251 880 251 840 251C800 251 760 251 720 251C680 251 640 251 600 251C560 251 520 251 480 251C440 251 400 251 360 251C320 251 280 251 240 251C200 251 160 251 120 251C80 251 40 251 20 251L0 251Z"
        fill="#579dbb"></path>
    <path
        d="M0 212L20 211.8C40 211.7 80 211.3 120 212.2C160 213 200 215 240 213.8C280 212.7 320 208.3 360 207.7C400 207 440 210 480 212C520 214 560 215 600 216.5C640 218 680 220 720 221.2C760 222.3 800 222.7 840 220.3C880 218 920 213 940 210.5L960 208L960 251L940 251C920 251 880 251 840 251C800 251 760 251 720 251C680 251 640 251 600 251C560 251 520 251 480 251C440 251 400 251 360 251C320 251 280 251 240 251C200 251 160 251 120 251C80 251 40 251 20 251L0 251Z"
        fill="#61a5c2"></path>
</svg>