<svg id="visual" viewBox="0 0 960 280" width="960" height="280" xmlns="http://www.w3.org/2000/svg"
    xmlns:xlink="http://www.w3.org/1999/xlink" version="1.1">
    <rect x="0" y="0" width="960" height="280" fill="#2C7DA0"></rect>
    <path
        d="M0 239L20 237.7C40 236.3 80 233.7 120 228.5C160 223.3 200 215.7 240 212C280 208.3 320 208.7 360 214.3C400 220 440 231 480 236.2C520 241.3 560 240.7 600 240.7C640 240.7 680 241.3 720 235.7C760 230 800 218 840 210.7C880 203.3 920 200.7 940 199.3L960 198L960 0L940 0C920 0 880 0 840 0C800 0 760 0 720 0C680 0 640 0 600 0C560 0 520 0 480 0C440 0 400 0 360 0C320 0 280 0 240 0C200 0 160 0 120 0C80 0 40 0 20 0L0 0Z"
        fill="#468faf"></path>
    <path
        d="M0 175L20 171.5C40 168 80 161 120 160.7C160 160.3 200 166.7 240 165.2C280 163.7 320 154.3 360 155.3C400 156.3 440 167.7 480 174.7C520 181.7 560 184.3 600 186.7C640 189 680 191 720 189.7C760 188.3 800 183.7 840 175.8C880 168 920 157 940 151.5L960 146L960 0L940 0C920 0 880 0 840 0C800 0 760 0 720 0C680 0 640 0 600 0C560 0 520 0 480 0C440 0 400 0 360 0C320 0 280 0 240 0C200 0 160 0 120 0C80 0 40 0 20 0L0 0Z"
        fill="#3c84a7"></path>
    <path
        d="M0 108L20 106.3C40 104.7 80 101.3 120 103.3C160 105.3 200 112.7 240 112.2C280 111.7 320 103.3 360 101.5C400 99.7 440 104.3 480 109.3C520 114.3 560 119.7 600 117.3C640 115 680 105 720 103.5C760 102 800 109 840 111.7C880 114.3 920 112.7 940 111.8L960 111L960 0L940 0C920 0 880 0 840 0C800 0 760 0 720 0C680 0 640 0 600 0C560 0 520 0 480 0C440 0 400 0 360 0C320 0 280 0 240 0C200 0 160 0 120 0C80 0 40 0 20 0L0 0Z"
        fill="#327a9f"></path>
    <path
        d="M0 58L20 57.7C40 57.3 80 56.7 120 56.7C160 56.7 200 57.3 240 58.7C280 60 320 62 360 64.5C400 67 440 70 480 71C520 72 560 71 600 67.2C640 63.3 680 56.7 720 56.5C760 56.3 800 62.7 840 67C880 71.3 920 73.7 940 74.8L960 76L960 0L940 0C920 0 880 0 840 0C800 0 760 0 720 0C680 0 640 0 600 0C560 0 520 0 480 0C440 0 400 0 360 0C320 0 280 0 240 0C200 0 160 0 120 0C80 0 40 0 20 0L0 0Z"
        fill="#2a6f97"></path>
</svg>